<svg width="128" height="128" viewBox="0 0 128 128" fill="none" xmlns="http://www.w3.org/2000/svg">
<path d="M36.61 123.93L85.17 54.6L77.18 38.99C70.49 43.62 55.97 53.67 53.77 55.06C53.18 55.43 52.73 55.96 52.47 56.6C52.47 56.6 35.99 99.57 33.31 106.53C30.4 114.1 30.35 117.17 31.1 119.43C31.75 121.42 36.61 123.93 36.61 123.93V123.93Z" fill="#82AEC0"/>
<path d="M112.73 5.68C102.48 1.03 89.85 6.77 84.52 18.51C82.39 23.2 82.35 28.62 82.37 30.65C82.4 33.45 78.08 37.52 76.71 38.73C76.47 38.94 76.42 39.29 76.58 39.56L84.98 54.2C85.2 54.58 85.71 54.65 86.03 54.35L87.71 52.75C92.36 49.16 96.67 49.38 98.34 49.62C107.42 50.91 117.13 45.27 121.63 35.36C126.97 23.62 122.98 10.33 112.73 5.68V5.68ZM97.29 39.68C91.14 36.89 88.75 28.92 91.94 21.88C95.14 14.84 102.71 11.39 108.86 14.18C115.01 16.97 117.4 24.94 114.21 31.98C111.02 39.03 103.44 42.48 97.29 39.68Z" fill="#DE3E31"/>
<path d="M64 67.42C66.5128 67.42 68.55 65.3829 68.55 62.87C68.55 60.3571 66.5128 58.32 64 58.32C61.4871 58.32 59.45 60.3571 59.45 62.87C59.45 65.3829 61.4871 67.42 64 67.42Z" fill="#A8E3F0"/>
<path d="M49.17 65.19L60.65 89.61L64.47 84.15L49.9 63.29L49.17 65.19ZM77.82 65.09L80.43 61.37L78.54 56.19C77.86 54.19 77.57 53.18 76.27 52.56L64.74 47.58L63.5 48.44L77.82 65.09Z" fill="#2F7889"/>
<path d="M91.39 123.93L42.83 54.6L50.55 38.8C57.11 43.34 72 53.65 74.23 55.05C74.82 55.42 75.27 55.95 75.53 56.59C75.53 56.59 92.01 99.56 94.69 106.52C97.6 114.09 97.65 117.16 96.9 119.42C96.25 121.42 91.39 123.93 91.39 123.93V123.93Z" fill="#82AEC0"/>
<path d="M60.05 76.15L57.03 74.86L91.39 123.92C91.39 123.92 95.09 119.97 90.37 112.69L69.41 83.96C67.1213 80.497 63.8669 77.7815 60.05 76.15V76.15Z" fill="#B9E4EA"/>
<path d="M64 67.42C66.5128 67.42 68.55 65.3829 68.55 62.87C68.55 60.3571 66.5128 58.32 64 58.32C61.4871 58.32 59.45 60.3571 59.45 62.87C59.45 65.3829 61.4871 67.42 64 67.42Z" fill="#B9E4EA"/>
<path d="M6.35994 35.36C10.8599 45.28 20.5699 50.91 29.6499 49.62C31.3199 49.38 35.6199 49.16 40.2799 52.75L41.9599 54.35C42.2799 54.65 42.7899 54.58 43.0099 54.2L51.4099 39.56C51.5699 39.28 51.5199 38.94 51.2799 38.73C49.9199 37.52 45.5899 33.45 45.6199 30.65C45.6399 28.62 45.5999 23.2 43.4699 18.51C38.1499 6.77 25.5199 1.03 15.2699 5.68C5.01994 10.33 1.02994 23.62 6.35994 35.36ZM13.7899 31.99C10.5899 24.95 12.9899 16.98 19.1399 14.19C25.2899 11.4 32.8599 14.84 36.0599 21.89C39.2599 28.93 36.8599 36.9 30.7099 39.69C24.5599 42.48 16.9799 39.03 13.7899 31.99Z" fill="#DE3E31"/>
<path d="M92.6701 10.75C92.0701 11.46 91.7201 12.51 92.2901 13.4C92.9201 14.39 95.7401 14.5 101.66 10.38C103.31 9.23001 102.89 7.55001 100.86 7.28001C97.9301 6.83001 94.4701 8.45001 92.6701 10.75V10.75ZM17.7101 11.7C15.2101 13.13 14.1501 13.97 12.1301 17.32C11.5001 18.36 10.0701 21.05 8.64006 19.83C7.70006 19.03 7.77006 17.18 8.36006 15.5C9.57006 12.09 11.6501 9.59001 14.5701 8.11001C15.6201 7.58001 18.2001 6.75001 19.6301 7.31001C22.4301 8.40001 19.9101 10.45 17.7101 11.7Z" fill="#FF7555"/>
</svg>
