<svg width="37" height="34" viewBox="0 0 37 34" fill="none" xmlns="http://www.w3.org/2000/svg">
<path d="M19.3516 33.25L12.5186 10.042C12.5186 10.042 11.0986 10.803 9.91455 11.679C9.60155 11.91 7.93755 14.469 7.60255 14.719C5.84055 16.034 4.05055 17.56 3.81055 17.886C3.35155 18.51 0.268555 33.75 0.268555 33.75L19.3516 33.25Z" fill="#292F33"/>
<path d="M32.2685 32.75L26.7685 13L18.2685 2.29199L12.8955 6.48499L11.9245 7.65699C11.5185 8.43799 10.2685 13 10.2685 13L9.01855 17.75L3.52055 27.804L1.18555 32.541L32.2685 32.75Z" fill="#4B545D"/>
<path d="M3.52051 27.804C3.52051 27.804 11.3935 17.021 11.4145 16.416C11.4355 15.812 10.2685 13 10.2685 13L9.01851 17.75L3.52051 27.804Z" fill="white"/>
<path d="M12.2686 31.75H14.2686L16.2686 16L17.5026 14.203L21.0806 8.969L21.1746 7.5L17.8876 11.954L15.2686 15.502L12.8806 22.864L12.2686 24.75L10.4776 27.884L8.26855 31.75H12.2686ZM24.3276 14.134L22.3626 20.031L21.2686 23.75L24.0606 31.375L27.6126 31.313C27.6126 31.313 23.2686 24.375 23.2686 23.75C23.2686 23.63 23.8936 21.063 23.8936 21.063L24.9876 16.532L25.2686 15L24.3276 14.134V14.134Z" fill="#292F33"/>
<path d="M24.3276 14.134L22.5496 13.469L21.0186 14.344L19.6906 13.281L17.5026 14.203L21.0806 8.96899L24.3276 14.134ZM27.1986 21.513L25.4876 20.125L23.8936 21.063L24.9876 16.531L26.4246 18.813L27.1986 21.513Z" fill="#F1F1F1"/>
<path d="M22.3625 20.031L21.2685 23.75L21.0185 21.333L22.3625 20.031ZM12.2685 24.75L10.4775 27.884L10.8305 25.453C10.8305 25.453 11.5125 24.875 11.7685 24.542C12.0235 24.209 12.8805 22.864 12.8805 22.864L12.2685 24.75ZM15.4765 13.75L17.8875 11.954L15.2685 15.502L15.4765 13.75Z" fill="white"/>
<path d="M36.2686 33.75C36.2686 33.75 35.8846 29.905 35.4146 26.667C35.0456 24.124 32.6576 20.364 31.3156 19.552L30.0816 16.016L28.0586 10.914L25.8006 8.62499L23.9566 6.99899L23.4516 6.37799L18.2686 2.29199L20.5576 7.29899L21.0816 8.96899L24.3276 14.134L24.9876 16.531L26.4256 18.812L27.1996 21.513L28.2686 25.25L26.2686 31.75L36.2686 33.75Z" fill="#292F33"/>
<path d="M33.9766 30.188C32.6316 30.188 29.0186 30.75 28.5186 30.75C26.5186 30.75 24.2686 29 23.2686 29C22.2686 29 19.6746 30.75 17.6746 30.75C15.9866 30.75 15.2686 29.938 12.9556 29.938C12.2076 29.938 8.85955 30.809 8.14355 30.719C6.32055 30.491 5.38355 29.75 4.92455 29.75C2.26855 29.75 0.268555 33.75 0.268555 33.75H36.2686C36.2686 33.75 35.3936 30.188 33.9766 30.188Z" fill="#5C903F"/>
<path d="M12.8955 6.485L15.0185 6L15.6745 7.844L17.7995 6.969L20.5575 7.299L18.2685 0L12.8955 6.485Z" fill="#F1F1F1"/>
<path d="M23.4516 6.378L22.0086 6.135L20.5576 7.299L18.2686 0L23.4516 6.378ZM28.2216 10.75L30.0806 16.016L28.3516 13.188L26.7376 11.563L25.7996 8.625L28.2216 10.75ZM35.4146 26.667C35.4146 26.667 35.2686 22.782 34.1436 21.5C33.0186 20.218 31.2686 19.521 31.2686 19.521L32.7066 22.792L34.1646 24.209L35.4146 26.667Z" fill="#A8B6C0"/>
</svg>
