<svg width="36" height="36" viewBox="0 0 36 36" fill="none" xmlns="http://www.w3.org/2000/svg">
<path d="M15.4603 6.41899C15.9453 4.38899 15.8443 3.27999 14.9073 2.74199C13.9713 2.20499 15.2443 0.0759912 16.8843 1.94899C18.5253 3.82199 18.3123 5.56699 17.5463 6.80199C16.7793 8.03599 15.2103 7.46199 15.4603 6.41899V6.41899ZM14.9803 9.36999C14.0643 11.247 13.2813 12.038 12.2163 11.857C11.1523 11.677 10.7813 14.129 13.2393 13.726C15.6963 13.323 16.6403 11.84 16.8343 10.4C17.0273 8.95999 15.4513 8.40599 14.9803 9.36999ZM26.3163 15.631C24.2443 14.254 20.9343 17.061 20.6173 17.911C20.3003 18.761 22.3383 21.372 21.7633 22.851C21.1863 24.328 22.9053 24.619 23.6833 23.342C24.4613 22.064 23.9873 19.73 23.8393 19.173C23.6913 18.616 26.0283 17.954 27.5103 19.136C28.9913 20.316 27.1873 16.211 26.3163 15.631V15.631ZM27.3843 14.813C25.8383 12.864 28.3593 9.33099 29.1783 8.94299C29.9993 8.55599 31.7503 9.34499 33.1753 8.64799C34.5993 7.95099 34.9203 9.50199 33.8253 10.522C32.5983 11.664 31.5843 11.857 30.7063 12.048C30.1433 12.17 30.6743 14.081 30.6973 16.018C30.7203 17.817 28.0343 15.633 27.3843 14.813Z" fill="#3E721D"/>
<path d="M15.1193 2.742C15.1193 3.142 14.7953 3.466 14.3953 3.466C13.9963 3.466 13.6713 3.142 13.6713 2.742C13.6713 2.343 13.9953 2.018 14.3953 2.018C14.7953 2.018 15.1193 2.343 15.1193 2.742ZM12.1203 11.639C12.1203 12.038 11.7963 12.363 11.3963 12.363C10.9973 12.363 10.6723 12.039 10.6723 11.639C10.6723 11.24 10.9963 10.915 11.3963 10.915C11.7963 10.915 12.1203 11.239 12.1203 11.639ZM11.8223 13.316C11.8223 13.716 11.4983 14.04 11.0983 14.04C10.6993 14.04 10.3743 13.716 10.3743 13.316C10.3743 12.917 10.6983 12.592 11.0983 12.592C11.4983 12.592 11.8223 12.916 11.8223 13.316ZM13.2693 14.04C13.2693 14.439 12.9453 14.764 12.5453 14.764C12.1463 14.764 11.8213 14.44 11.8213 14.04C11.8213 13.64 12.1453 13.316 12.5453 13.316C12.9453 13.316 13.2693 13.64 13.2693 14.04ZM21.8443 22.888C21.9723 23.266 21.7713 23.679 21.3923 23.808C21.0153 23.937 20.6033 23.733 20.4743 23.355C20.3453 22.977 20.5463 22.565 20.9243 22.436C21.3033 22.307 21.7153 22.51 21.8443 22.888V22.888ZM22.6163 24.156C22.7443 24.534 22.5433 24.946 22.1643 25.075C21.7873 25.203 21.3753 25.001 21.2463 24.623C21.1173 24.246 21.3193 23.833 21.6973 23.705C22.0763 23.575 22.4883 23.778 22.6163 24.156ZM24.2433 23.916C24.3733 24.293 24.1703 24.706 23.7913 24.835C23.4153 24.964 23.0033 24.761 22.8743 24.384C22.7453 24.006 22.9473 23.593 23.3243 23.465C23.7033 23.335 24.1153 23.538 24.2433 23.916V23.916ZM34.0463 8.164C34.0463 8.563 33.7213 8.888 33.3213 8.888C32.9213 8.888 32.5973 8.563 32.5973 8.164C32.5973 7.765 32.9213 7.439 33.3213 7.439C33.7213 7.439 34.0463 7.765 34.0463 8.164ZM35.5503 8.889C35.5503 9.288 35.2263 9.613 34.8253 9.613C34.4273 9.613 34.1023 9.288 34.1023 8.889C34.1023 8.49 34.4263 8.165 34.8253 8.165C35.2263 8.164 35.5503 8.49 35.5503 8.889ZM35.2043 10.605C35.2043 11.004 34.8803 11.329 34.4793 11.329C34.0803 11.329 33.7553 11.004 33.7553 10.605C33.7553 10.206 34.0793 9.881 34.4793 9.881C34.8803 9.881 35.2043 10.206 35.2043 10.605ZM15.3123 1.193C15.3123 1.592 14.9883 1.917 14.5883 1.917C14.1893 1.917 13.8643 1.593 13.8643 1.193C13.8643 0.793 14.1883 0.469 14.5883 0.469C14.9883 0.469 15.3123 0.793 15.3123 1.193ZM16.8833 0.724C16.8833 1.124 16.5593 1.448 16.1593 1.448C15.7603 1.448 15.4353 1.124 15.4353 0.724C15.4353 0.325 15.7593 0 16.1593 0C16.5593 0.001 16.8833 0.325 16.8833 0.724Z" fill="#3E721D"/>
<path d="M0.00823501 5.22701C0.272235 4.17401 4.66524 0.504012 8.65024 1.19301C10.6742 1.54401 11.5922 4.54701 13.7522 4.62101C25.0412 5.01001 36.0242 15.759 32.5992 26.012C31.0932 30.519 26.9812 34.81 17.1382 31.013C15.1822 30.259 13.1682 29.028 9.31423 29.786C6.46223 30.349 6.16523 32.945 6.51123 34.283C6.78323 35.331 6.35024 35.865 5.81024 35.042C4.58424 33.175 4.49323 30.695 6.45323 29.087C10.3652 25.876 15.7012 27.803 19.5902 29.028C26.0712 31.072 29.5072 25.377 25.9362 18.713C22.4332 12.173 16.1242 10.389 11.9312 9.89701C10.7632 9.76001 8.29223 11.945 6.56423 11.639C2.94323 10.996 -0.181765 5.99101 0.00823501 5.22701Z" fill="#3E721D"/>
<path d="M0.00817871 5.22701C0.272179 4.17401 4.66518 0.504012 8.65018 1.19301C10.6742 1.54401 11.5922 4.54701 13.7522 4.62101C25.0412 5.01001 36.0242 15.759 32.5992 26.012C31.0932 30.519 26.9812 34.81 17.1382 31.013C15.1822 30.259 13.1682 29.028 9.31418 29.786C6.46218 30.349 6.16518 32.945 6.51118 34.283C6.64518 34.799 6.60818 35.189 6.47218 35.356C5.55018 34.075 5.11018 31.017 7.13318 29.492C10.6722 26.825 15.7012 29.361 20.4342 30.534C30.6852 33.075 32.6172 22.539 28.3412 15.659C23.1552 7.31101 6.80018 5.32501 0.00817871 5.22701Z" fill="#77B255"/>
<path d="M6.80029 3.57501C7.35258 3.57501 7.80029 3.1273 7.80029 2.57501C7.80029 2.02273 7.35258 1.57501 6.80029 1.57501C6.24801 1.57501 5.80029 2.02273 5.80029 2.57501C5.80029 3.1273 6.24801 3.57501 6.80029 3.57501Z" fill="#292F33"/>
<path d="M5.80029 10.575C6.35258 10.575 6.80029 10.1273 6.80029 9.57501C6.80029 9.02273 6.35258 8.57501 5.80029 8.57501C5.24801 8.57501 4.80029 9.02273 4.80029 9.57501C4.80029 10.1273 5.24801 10.575 5.80029 10.575Z" fill="#292F33"/>
</svg>
