<svg width="31" height="36" viewBox="0 0 31 36" fill="none" xmlns="http://www.w3.org/2000/svg">
<path d="M29.6817 9.586L20.6817 0.586C20.3207 0.225 19.8197 0 19.2667 0C18.1627 0 17.2677 0.896 17.2667 2C17.2667 2.552 17.4907 3.053 17.8527 3.415L13.9937 7.274L22.9937 16.274L26.8527 12.415C27.2147 12.776 27.7147 13 28.2667 13C29.3707 13 30.2677 12.104 30.2667 11C30.2667 10.448 30.0427 9.948 29.6817 9.586Z" fill="#E1E8ED"/>
<path d="M19.2666 0H4.2666C2.0576 0 0.266602 1.791 0.266602 4V32C0.266602 34.209 2.0576 36 4.2666 36H26.2666C28.4756 36 30.2666 34.209 30.2666 32V11H21.2666C20.2666 11 19.2666 10 19.2666 9V0Z" fill="#CCD6DD"/>
<path d="M19.2666 0H17.2666V9C17.2666 11.209 19.0576 13 21.2666 13H30.2666V11H21.2666C20.2666 11 19.2666 10 19.2666 9V0ZM14.2666 8C14.2666 8.552 13.8186 9 13.2666 9H5.2666C4.7146 9 4.2666 8.552 4.2666 8C4.2666 7.448 4.7146 7 5.2666 7H13.2666C13.8186 7 14.2666 7.448 14.2666 8ZM14.2666 12C14.2666 12.552 13.8186 13 13.2666 13H5.2666C4.7146 13 4.2666 12.552 4.2666 12C4.2666 11.448 4.7146 11 5.2666 11H13.2666C13.8186 11 14.2666 11.448 14.2666 12ZM26.2666 16C26.2666 16.552 25.8196 17 25.2666 17H5.2666C4.7146 17 4.2666 16.552 4.2666 16C4.2666 15.448 4.7146 15 5.2666 15H25.2666C25.8196 15 26.2666 15.448 26.2666 16ZM26.2666 20C26.2666 20.553 25.8196 21 25.2666 21H5.2666C4.7146 21 4.2666 20.553 4.2666 20C4.2666 19.447 4.7146 19 5.2666 19H25.2666C25.8196 19 26.2666 19.447 26.2666 20ZM26.2666 24C26.2666 24.553 25.8196 25 25.2666 25H5.2666C4.7146 25 4.2666 24.553 4.2666 24C4.2666 23.447 4.7146 23 5.2666 23H25.2666C25.8196 23 26.2666 23.447 26.2666 24ZM26.2666 28C26.2666 28.553 25.8196 29 25.2666 29H5.2666C4.7146 29 4.2666 28.553 4.2666 28C4.2666 27.447 4.7146 27 5.2666 27H25.2666C25.8196 27 26.2666 27.447 26.2666 28Z" fill="#99AAB5"/>
</svg>
